<svg aria-hidden="true" style="position: absolute; width: 0; height: 0; overflow: hidden;" version="1.1" xmlns="http://www.w3.org/2000/svg" xmlns:xlink="http://www.w3.org/1999/xlink">
<defs>
<symbol id="products-close-button" viewBox="0 0 32 32">
<path d="M31.974 5.272c-0.013-0.189-0.006-0.371-0.039-0.56-0.046-0.371-0.13-0.736-0.254-1.094-0.495-1.42-1.602-2.598-2.989-3.165-0.176-0.065-0.352-0.137-0.527-0.189-0.189-0.046-0.352-0.098-0.56-0.13l-0.313-0.046-0.156-0.020-0.111-0.006-0.319-0.020h-0.169l-1.7 0.006-3.399 0.006c-4.532 0.006-9.058 0.006-13.577-0.033-0.801-0.006-2.064 0.221-2.461 0.378-0.788 0.319 0.234 0.586 1.765 0.788 5.047 0.671 11.168 0.964 17.4 1.042l1.407 0.020 0.658 0.006 0.352 0.020c0.098 0.013 0.156 0.033 0.241 0.039 0.684 0.137 1.348 0.534 1.791 1.087 0.449 0.56 0.684 1.257 0.671 1.967l-0.039 2.813c-0.046 3.751-0.085 7.502-0.13 11.259l-0.039 5.633-0.006 1.407c0.006 0.527-0.020 0.82-0.098 1.094-0.156 0.632-0.547 1.205-1.081 1.582-0.267 0.189-0.56 0.332-0.873 0.423-0.156 0.046-0.319 0.072-0.482 0.098l-0.247 0.013c-0.091 0.006-0.228 0-0.339 0.006l-2.826 0.013-5.652 0.059c-1.869-0.026-3.731-0.046-5.6-0.072l-7.43-0.065c-0.052 0-0.078-0.006-0.098-0.013l-0.072-0.013c-0.085-0.006-0.215-0.052-0.339-0.078-0.117-0.046-0.241-0.078-0.352-0.137-0.456-0.208-0.847-0.553-1.127-0.97-0.273-0.423-0.436-0.905-0.449-1.407l-0.006-4.382c-0.006-2.956-0.026-5.913-0.059-8.863l-0.059-4.422-0.052-2.207-0.020-1.107-0.013-0.553v-0.104l0.006-0.117c0.006-0.085 0-0.202 0.013-0.26s0.020-0.124 0.026-0.182c0.006-0.059 0.033-0.143 0.039-0.215 0.013-0.072 0.033-0.143 0.059-0.215s0.039-0.143 0.065-0.208c0.098-0.273 0.247-0.521 0.397-0.749 0.319-0.443 0.71-0.788 1.081-1.029 0.736-0.469 1.354-0.612 1.237-0.925-0.052-0.124-0.247-0.267-0.586-0.326-0.339-0.078-0.827-0.065-1.4 0.117-0.567 0.182-1.237 0.547-1.791 1.185-0.56 0.632-1.003 1.511-1.094 2.592l-0.020 0.287-0.007 0.332-0.013 0.58-0.033 1.159-0.039 2.325c-0.026 1.55-0.052 3.1-0.072 4.649-0.046 3.1-0.072 6.206-0.065 9.305l0.006 1.869 0.006 0.938c0 0.163 0 0.3 0.007 0.482 0.013 0.195 0.006 0.391 0.046 0.586 0.104 0.781 0.391 1.537 0.834 2.188 0.443 0.645 1.035 1.192 1.719 1.576 0.169 0.098 0.352 0.176 0.527 0.26 0.182 0.065 0.365 0.143 0.554 0.195 0.195 0.046 0.365 0.104 0.593 0.13l0.319 0.046c0.111 0.013 0.163 0.006 0.247 0.013l0.287 0.013h0.234l0.469-0.006 0.931-0.006 3.738-0.033c4.982-0.046 9.963-0.098 14.945-0.143l0.84 0.033c0.143 0.006 0.267 0.013 0.436 0.013 0.169-0.006 0.339 0 0.508-0.020 0.684-0.059 1.354-0.267 1.96-0.606 1.211-0.671 2.142-1.882 2.455-3.269 0.176-0.86 0.117-1.309 0.15-1.895l0.039-1.687 0.059-3.38c0.065-4.506 0.091-9.025 0.091-13.558v-1.914c-0.020-0.065-0.020-0.13-0.026-0.234z"></path>
<path d="M9.593 20.568c-0.085 0.078-0.052 0.365 0.020 0.521 0.143 0.306 0.436 0.391 0.736 0.378 0.983-0.033 1.81-0.449 2.501-1.022 1.029-0.866 2.090-1.7 3.074-2.618 0.007 0.006 0.020 0.013 0.026 0.020 0.169 0.208 0.339 0.417 0.514 0.619 1.12 1.276 2.292 2.494 3.673 3.497 0.391 0.287 0.886 0.358 1.276-0.091 0.358-0.404 0.397-0.925 0.098-1.315-0.547-0.703-1.087-1.42-1.726-2.038-0.781-0.755-1.608-1.465-2.429-2.181 0.078-0.091 0.156-0.176 0.228-0.267 0.208-0.169 0.417-0.339 0.619-0.514 1.276-1.12 2.494-2.292 3.497-3.673 0.287-0.391 0.358-0.886-0.091-1.276-0.404-0.358-0.925-0.397-1.315-0.098-0.703 0.547-1.42 1.087-2.038 1.726-0.781 0.807-1.511 1.654-2.247 2.501-1.289-1.836-3.087-3.217-4.565-4.884-0.078-0.085-0.365-0.052-0.521 0.020-0.306 0.143-0.391 0.436-0.378 0.736 0.033 0.983 0.449 1.81 1.022 2.501 0.873 1.035 1.713 2.103 2.637 3.093-1.706 1.27-3.028 2.963-4.61 4.369z"></path>
</symbol>
<symbol id="icecream1" viewBox="0 0 32 32">
<path fill="#d4b783" style="fill: var(--color1, #d4b783)" d="M18.116 13.535l-1.946 1.947c-0.404 0.404-0.942 0.627-1.513 0.627s-1.109-0.223-1.513-0.627c-0.404-0.404-0.627-0.942-0.627-1.513s0.223-1.109 0.627-1.513l1.946-1.947-1.592-1.592c63.961-123.136 62.399-120.374 60.838-117.612l-65.552 126.076c2.073 1.864 4.658 3.055 7.396 3.44l5.341-3.881-3.404-3.404zM4.738 24.651c-1.595 2.871-2.805 5.053-2.983 5.39-0.025 0.047-0.097 0.183-0.11 0.25 0.006 0.008 0.015 0.019 0.030 0.034s0.026 0.025 0.034 0.030c0.067-0.013 0.202-0.085 0.25-0.11 0.331-0.175 2.441-1.345 5.236-2.898l1.592-1.157c-1.539-0.387-2.887-0.914-4.146-1.587l0.097 0.047zM7.964 18.851c27.871-53.738 27.067-52.315 26.263-50.891l-28.689 55.251c1.587 0.829 3.28 1.387 5.053 1.668l3.767-2.737c-2.344-0.582-4.54-1.704-6.395-3.291z"></path>
<path fill="#fdffd0" style="fill: var(--color2, #fdffd0)" d="M26.182 2.736c-1.238-0.71-2.646-1.089-4.112-1.089-2.213 0-4.293 0.862-5.857 2.426-0.933 0.933-1.584 2.001-1.98 3.252l2.602 2.602c0.321 0.321 0.321 0.843 0 1.164l-2.529 2.529c-0.089 0.089-0.145 0.212-0.145 0.348 0 0 0 0.001 0 0.001v-0c0 0.132 0.051 0.256 0.145 0.349 0.089 0.089 0.212 0.145 0.348 0.145 0 0 0.001 0 0.001 0h-0c0 0 0.001 0 0.001 0 0.136 0 0.259-0.055 0.348-0.145l2.529-2.529c0.149-0.149 0.354-0.241 0.581-0.241 0 0 0.001 0 0.001 0h-0c0.211 0 0.421 0.080 0.582 0.241l4.208 4.208c5.29-3.677 6.959-9.375 3.277-13.261zM18.827 6.686c-0.321 0.321-0.843 0.321-1.164 0s-0.321-0.843 0-1.164c1.176-1.176 2.741-1.823 4.408-1.823s3.232 0.647 4.408 1.823c0.321 0.321 0.321 0.843 0 1.164-0.149 0.149-0.354 0.241-0.581 0.241-0 0-0.001 0-0.001 0h0c-0 0-0.001 0-0.001 0-0.227 0-0.432-0.092-0.581-0.241l-0-0c-1.788-1.788-4.698-1.789-6.487 0z"></path>
<path fill="#000" style="fill: var(--color3, #000)" d="M25.896 6.928c0 0 0.001 0 0.001 0 0.227 0 0.432-0.092 0.581-0.241l0-0c0.321-0.321 0.321-0.843 0-1.164-1.176-1.176-2.741-1.823-4.408-1.823s-3.232 0.647-4.408 1.823c-0.321 0.321-0.321 0.843 0 1.164s0.843 0.321 1.164 0c1.788-1.789 4.698-1.788 6.487 0 0.149 0.149 0.354 0.241 0.581 0.241 0 0 0.001 0 0.001 0h-0z"></path>
<path fill="#000" style="fill: var(--color3, #000)" d="M29.092 2.908c-1.875-1.876-4.369-2.908-7.021-2.908s-5.146 1.033-7.021 2.908c-1.213 1.213-2.057 2.674-2.51 4.344-0.429 0.77-2.891 5.188-5.498 9.871-0.006 0.011-0.012 0.022-0.018 0.033-3.106 5.579-6.41 11.523-6.723 12.115-0.461 0.871-0.39 1.617 0.211 2.218 0.341 0.341 0.728 0.511 1.158 0.511 0.329 0 0.683-0.1 1.061-0.3 1.089-0.576 20.33-11.298 22.018-12.239 1.67-0.453 3.131-1.297 4.344-2.51 1.875-1.876 2.908-4.369 2.908-7.021s-1.033-5.146-2.908-7.022zM7.195 27.348c-2.795 1.553-4.905 2.723-5.236 2.898-0.047 0.025-0.183 0.097-0.25 0.11-0.013-0.010-0.024-0.020-0.034-0.030l-0-0c-0.011-0.011-0.021-0.022-0.030-0.034l-0.001-0.001c0.013-0.067 0.085-0.202 0.11-0.25 0.178-0.337 1.388-2.519 2.983-5.39 1.162 0.625 2.51 1.153 3.924 1.513l0.125 0.027c0.113 0.028 0.226 0.057 0.339 0.083-0.669 0.372-1.317 0.732-1.931 1.074zM11.431 24.992c-0.366-0.039-0.653-0.079-0.938-0.125l0.098 0.013c-1.773-0.28-3.466-0.839-5.053-1.668 0.771-1.386 1.599-2.875 2.426-4.361 1.854 1.588 4.050 2.709 6.395 3.291 0.432 0.114 0.984 0.224 1.545 0.304l0.083 0.010c120.561-62.621 119.072-61.779 117.582-60.937l-122.137 63.473zM18.701 20.945c-0.172 0.008-0.373 0.012-0.576 0.012-0.687 0-1.362-0.050-2.022-0.146l0.075 0.009c-2.737-0.385-5.322-1.576-7.396-3.44 1.982-3.561 3.836-6.888 4.714-8.464l1.592 1.592-1.946 1.947c-0.404 0.404-0.627 0.942-0.627 1.513s0.223 1.109 0.627 1.513c0.404 0.404 0.942 0.627 1.513 0.627s1.109-0.223 1.513-0.627l1.946-1.947 4.968 4.968c-0.942 0.525-2.511 1.399-4.382 2.441zM27.927 15.787c-0.933 0.933-2.001 1.584-3.252 1.98l-5.978-5.978c-0.149-0.149-0.354-0.241-0.581-0.241-0 0-0.001 0-0.001 0h0c-0 0-0.001 0-0.001 0-0.227 0-0.432 0.092-0.581 0.241l-2.529 2.529c-0.089 0.089-0.212 0.145-0.348 0.145-0 0-0.001 0-0.001 0h0c-0 0-0.001 0-0.001 0-0.136 0-0.259-0.055-0.348-0.145l-0-0c-0.089-0.089-0.145-0.212-0.145-0.348 0-0 0-0.001 0-0.001v0c0-0.132 0.051-0.256 0.145-0.349l2.529-2.529c0.321-0.321 0.321-0.843 0-1.164l-2.602-2.602c0.396-1.251 1.046-2.318 1.98-3.252 1.564-1.565 3.645-2.426 5.857-2.426 1.466 0 2.874 0.379 4.112 1.089 0.664 0.385 1.237 0.829 1.745 1.337l0 0c1.565 1.564 2.426 3.645 2.426 5.857s-0.862 4.293-2.426 5.857z"></path>
</symbol>
<symbol id="icecream7" viewBox="0 0 32 32">
<path fill="#ed5564" style="fill: var(--color27, #ed5564)" d="M23.805 0.195c-0.26-0.26-0.683-0.26-0.942 0-0.058 0.057-0.105 0.126-0.138 0.201l-0.002 0.004h-0.001l-8.666 19.921 1.223 0.531 8.666-19.921c0.105-0.244 0.060-0.538-0.14-0.737z"></path>
<path fill="#e6e9ed" style="fill: var(--color28, #e6e9ed)" d="M14.387 2.937c1.095 2-4.021 1.208-4.681 5.063-0.907 5.298 3.75 5.056 3.75 5.056l6.445-0.597s3.105 1.769 1.402-3.986c-1.971-6.66-8.012-7.535-6.917-5.535z"></path>
<path fill="#ccd1d9" style="fill: var(--color29, #ccd1d9)" d="M18.667 29.336h-6.666l-1.334 2.664h9.333z"></path>
<path fill="#ec87c0" style="fill: var(--color30, #ec87c0)" d="M21.333 8h-11.999s-1.334 1.333-1.334 5.333c0 2.667 0.667 8.274 4 16.001h6.667c3.333-7.727 4-13.334 4-16.001-0-4-1.334-5.333-1.334-5.333z"></path>
<path fill="#d770ad" style="fill: var(--color31, #d770ad)" d="M13.334 29.336h-1.333c0 0.183 0.075 0.349 0.195 0.469l0 0c0.26 0.26 0.683 0.26 0.943 0 0.12-0.12 0.195-0.286 0.195-0.469v0zM14.667 29.336h-1.333c0 0.183 0.075 0.349 0.195 0.469l0 0c0.261 0.26 0.683 0.26 0.943 0 0.121-0.12 0.195-0.285 0.195-0.469v0zM16 29.336h-1.333c0.001 0.183 0.075 0.349 0.195 0.469v0c0.26 0.26 0.683 0.26 0.943 0 0.12-0.12 0.195-0.286 0.195-0.469v-0zM17.333 29.336h-1.333c0 0.183 0.075 0.349 0.195 0.469l0 0c0.26 0.26 0.682 0.26 0.942 0 0.121-0.119 0.195-0.285 0.195-0.468 0-0 0-0 0-0.001v0zM18.666 29.336h-1.333c0.001 0.17 0.065 0.34 0.195 0.469 0.261 0.26 0.683 0.26 0.943 0 0.12-0.12 0.194-0.285 0.194-0.468 0-0 0-0 0-0v0z"></path>
<path fill="#f5f7fa" style="fill: var(--color32, #f5f7fa)" d="M19.241 4.52c-0.359 0.808-1.395 2.754-3.336 3.55l0.506 1.233c1.931-0.792 3.101-2.426 3.709-3.548-0.283-0.468-0.573-0.872-0.891-1.251l0.012 0.015zM16.91 5.91c0.755-0.834 1.312-1.623 1.64-2.129-0.347-0.331-0.697-0.612-1.043-0.847-0.707 1.111-3.062 4.432-6.308 5.101l0.269 1.306c1.876-0.387 3.758-1.573 5.441-3.43z"></path>
<path fill="#e6e9ed" style="fill: var(--color28, #e6e9ed)" d="M21.139 30.861c-0.121-0.121-0.288-0.195-0.472-0.195 0 0 0 0-0 0h-10.667c-0 0-0 0-0 0-0.184 0-0.351 0.075-0.471 0.195v0c-0.26 0.261-0.26 0.684 0 0.943 0.121 0.121 0.287 0.195 0.471 0.195 0 0 0 0 0 0h10.667c0 0 0.001 0 0.002 0 0.184 0 0.35-0.075 0.47-0.195l0-0c0.26-0.26 0.26-0.683 0-0.943z"></path>
<path fill="#d770ad" style="fill: var(--color31, #d770ad)" d="M8.236 10.666h14.194c-0.383-1.952-1.098-2.667-1.098-2.667h-11.999s-0.715 0.715-1.098 2.667zM15.805 14.862c-0.26-0.26-0.683-0.26-0.943 0-0.121 0.12-0.195 0.287-0.195 0.47 0 0 0 0.001 0 0.001v-0 9.333c0 0.172 0.065 0.342 0.195 0.473 0.26 0.26 0.683 0.26 0.943 0 0.121-0.121 0.195-0.288 0.195-0.472 0-0 0-0 0-0.001v0-9.333c0-0.171-0.065-0.341-0.195-0.472zM19.139 14.862c-0.121-0.121-0.288-0.195-0.472-0.195s-0.351 0.075-0.472 0.195v0c-0.106 0.106-0.168 0.239-0.188 0.377h-0.001l-1.333 9.333h0c-0.028 0.201 0.034 0.412 0.188 0.566 0.26 0.26 0.683 0.26 0.942 0 0.099-0.099 0.166-0.229 0.188-0.374l0-0.004 1.334-9.333h-0.001c0.004-0.028 0.007-0.061 0.007-0.095 0-0.184-0.074-0.35-0.194-0.471l0 0zM13.994 24.572l-1.334-9.334-0.001 0.001c-0.021-0.149-0.089-0.279-0.188-0.377l-0-0c-0.26-0.26-0.682-0.26-0.943 0-0.12 0.12-0.194 0.287-0.194 0.47 0 0.034 0.002 0.067 0.007 0.099l-0-0.004-0.001 0.001 1.333 9.333h0.001c0.022 0.149 0.090 0.279 0.188 0.378l-0-0c0.26 0.26 0.683 0.26 0.943 0 0.154-0.154 0.216-0.365 0.188-0.566l0.001-0z"></path>
<path fill="#434a54" style="fill: var(--color33, #434a54)" d="M12.664 4.729l-1.328-0.125-0.001 0.009c0-0.004 0.023-0.396-0.214-0.819-0.321-0.574-0.965-0.957-1.914-1.139-0.361-0.069-0.599-0.418-0.529-0.78s0.419-0.599 0.78-0.529c0.963 0.185 2.243 0.662 2.875 1.889 0.387 0.75 0.336 1.421 0.33 1.495z"></path>
<path fill="#ed5564" style="fill: var(--color27, #ed5564)" d="M14.001 4.666c0 1.105-0.895 2-2 2s-2-0.895-2-2c0-1.105 0.895-2 2-2s2 0.895 2 2z"></path>
</symbol>
<symbol id="icecream8" viewBox="0 0 32 32">
<path fill="#f5b543" style="fill: var(--color34, #f5b543)" d="M20.838 11.96v2.531h-12.314v-2.531c0.625 0.298 1.358 0.472 2.132 0.472h0c0.574 0 1.134-0.095 1.67-0.282 0.756 0.187 1.547 0.282 2.355 0.282 0.807 0 1.597-0.095 2.355-0.282 0.495 0.179 1.067 0.282 1.662 0.282 0.003 0 0.005 0 0.008 0h-0c0.75 0 1.475-0.167 2.133-0.472z"></path>
<path fill="#a97819" style="fill: var(--color35, #a97819)" d="M20.838 16.691v4.508c0 2.728-2.219 4.947-4.948 4.947h-2.419c-2.728 0-4.947-2.219-4.947-4.947v-4.508h12.314z"></path>
<path fill="#000" style="fill: var(--color3, #000)" d="M24.658 9.818c2.107 0 3.821 1.714 3.821 3.821s-1.713 3.821-3.821 3.821c-0.58 0-1.129-0.13-1.622-0.361v4.1c0 3.94-3.315 7.146-7.256 7.146v1.43h2.529c0.607 0 1.099 0.492 1.099 1.099 0 0.607-0.493 1.099-1.099 1.099h-7.256c-0.608 0-1.099-0.493-1.099-1.099 0-0.608 0.492-1.099 1.099-1.099h2.529v-1.43c-3.941 0-7.257-3.206-7.257-7.146v-10.824c-1.572-0.156-2.803-1.497-2.803-3.124 0-1.715 1.368-3.113 3.060-3.141 0.951-1.262 2.432-2.025 4.025-2.041 0.961-1.275 2.466-2.042 4.075-2.042s3.113 0.767 4.075 2.042c1.592 0.016 3.073 0.78 4.025 2.041 1.692 0.028 3.060 1.426 3.060 3.141 0 1.063-0.526 2.003-1.328 2.572 0.049-0.002 0.097-0.004 0.146-0.004zM26.28 13.639c0-0.894-0.728-1.621-1.622-1.621s-1.622 0.727-1.622 1.621c0 0.895 0.728 1.622 1.622 1.622s1.622-0.727 1.622-1.622zM23.642 7.251c0-0.52-0.41-0.942-0.913-0.942-0.070 0-0.144 0.010-0.225 0.031-0.488 0.128-1-0.095-1.242-0.537-0.516-0.948-1.496-1.536-2.557-1.536-0.12 0-0.244 0.009-0.379 0.026-0.447 0.058-0.883-0.161-1.103-0.555-0.52-0.933-1.494-1.512-2.543-1.512-1.050 0-2.024 0.58-2.544 1.512-0.191 0.339-0.548 0.564-0.958 0.564-0.050 0-0.1-0.003-0.149-0.010l0.006 0.001c-0.134-0.017-0.258-0.026-0.38-0.026-1.060 0-2.039 0.588-2.557 1.536-0.242 0.442-0.753 0.664-1.241 0.537-0.082-0.020-0.155-0.031-0.226-0.031-0.503 0-0.912 0.423-0.912 0.942 0 0.518 0.409 0.941 0.912 0.941 0.073 0 0.146-0.010 0.226-0.030 0.487-0.128 0.999 0.094 1.241 0.537 0.518 0.947 1.497 1.535 2.557 1.535 0.403 0 0.794-0.083 1.163-0.245 0.131-0.059 0.283-0.094 0.444-0.094 0.11 0 0.217 0.016 0.317 0.047l-0.008-0.002c0.668 0.196 1.377 0.295 2.109 0.295 0.731 0 1.441-0.099 2.109-0.295 0.101-0.029 0.204-0.044 0.309-0.044 0.152 0 0.303 0.031 0.444 0.094 0.341 0.155 0.74 0.245 1.16 0.245 0.001 0 0.001 0 0.002 0h-0c1.060 0 2.040-0.588 2.557-1.535 0.19-0.344 0.55-0.573 0.964-0.573 0.099 0 0.195 0.013 0.286 0.038l-0.008-0.002c0.079 0.019 0.154 0.030 0.225 0.030 0.503 0 0.913-0.423 0.913-0.941zM20.838 21.199v-4.508h-12.314v4.508c0 2.728 2.219 4.947 4.947 4.947h2.419c2.729 0 4.948-2.219 4.948-4.947zM20.838 14.491v-2.531c-0.625 0.298-1.359 0.472-2.133 0.472h-0c-0.573 0-1.134-0.095-1.669-0.282-0.757 0.187-1.548 0.282-2.355 0.282-0.808 0-1.598-0.095-2.355-0.282-0.495 0.179-1.067 0.282-1.663 0.282-0.003 0-0.005 0-0.008 0h0c-0.749 0-1.474-0.167-2.132-0.472v2.531h12.314z"></path>
</symbol>
</defs>
</svg>
